<?xml version="1.0" encoding="UTF-8" standalone="no"?>
<!DOCTYPE svg PUBLIC "-//W3C//DTD SVG 1.1//EN" "http://www.w3.org/Graphics/SVG/1.1/DTD/svg11.dtd">
<svg version="1.1" xmlns="http://www.w3.org/2000/svg" xmlns:xlink="http://www.w3.org/1999/xlink" preserveAspectRatio="xMidYMid meet" viewBox="0 0 640 640" width="640" height="640"><defs><path d="M340 200C340 270.14 317.61 327 290 327C262.39 327 240 270.14 240 200C240 129.86 262.39 73 290 73C317.61 73 340 129.86 340 200Z" id="f4MkbciU1"></path><path d="M289.13 150.01C359.26 148.78 416.5 170.17 416.98 197.78C417.46 225.39 361 248.77 290.87 249.99C220.74 251.22 163.5 229.83 163.02 202.22C162.54 174.61 219 151.23 289.13 150.01Z" id="c1vkF37Zzo"></path><path d="M379.8 110.2C399.34 129.73 374.97 185.74 325.36 235.36C275.74 284.97 219.73 309.34 200.2 289.8C180.66 270.27 205.03 214.26 254.64 164.64C304.26 115.03 360.27 90.66 379.8 110.2Z" id="a1ajHGgvNb"></path><path d="M200.2 110.2C219.73 90.66 275.74 115.03 325.36 164.64C374.97 214.26 399.34 270.27 379.8 289.8C360.27 309.34 304.26 284.97 254.64 235.36C205.03 185.74 180.66 129.73 200.2 110.2Z" id="dvW79tHmb"></path><path d="M201 129.02C201 133.16 197.42 136.52 193 136.52C188.58 136.52 185 133.16 185 129.02C185 124.88 188.58 121.52 193 121.52C197.42 121.52 201 124.88 201 129.02Z" id="cgS5VgjHu"></path><path d="M397.13 229.61C397.13 233.75 393.55 237.11 389.13 237.11C384.71 237.11 381.13 233.75 381.13 229.61C381.13 225.46 384.71 222.11 389.13 222.11C393.55 222.11 397.13 225.46 397.13 229.61Z" id="a2sCX5K2qy"></path><path d="M199.42 263.35C199.42 267.49 195.84 270.85 191.42 270.85C187.01 270.85 183.42 267.49 183.42 263.35C183.42 259.2 187.01 255.85 191.42 255.85C195.84 255.85 199.42 259.2 199.42 263.35Z" id="k3Tm08wfBq"></path><path d="M330.91 102.85C330.91 106.99 327.33 110.35 322.91 110.35C318.49 110.35 314.91 106.99 314.91 102.85C314.91 98.7 318.49 95.35 322.91 95.35C327.33 95.35 330.91 98.7 330.91 102.85Z" id="b2DFh6HdCy"></path></defs><g><g><g><use xlink:href="#f4MkbciU1" opacity="1" fill="#FFFFFF" fill-opacity="0"></use><g><use xlink:href="#f4MkbciU1" opacity="1" fill-opacity="0" stroke="#FFFFFF" stroke-width="0.8" stroke-opacity="1"></use></g></g><g><use xlink:href="#c1vkF37Zzo" opacity="1" fill="#0fffff" fill-opacity="0"></use><g><use xlink:href="#c1vkF37Zzo" opacity="1" fill-opacity="0" stroke="#FFFFFF" stroke-width="0.8" stroke-opacity="1"></use></g></g><g><use xlink:href="#a1ajHGgvNb" opacity="1" fill="#0fffff" fill-opacity="0"></use><g><use xlink:href="#a1ajHGgvNb" opacity="1" fill-opacity="0" stroke="#FFFFFF" stroke-width="0.8" stroke-opacity="1"></use></g></g><g><use xlink:href="#dvW79tHmb" opacity="1" fill="#e70fff" fill-opacity="0"></use><g><use xlink:href="#dvW79tHmb" opacity="1" fill-opacity="0" stroke="#FFFFFF" stroke-width="0.8" stroke-opacity="1"></use></g></g><g><use xlink:href="#cgS5VgjHu" opacity="1" fill="#FFFFFF" fill-opacity="1"></use><g><use xlink:href="#cgS5VgjHu" opacity="1" fill-opacity="0" stroke="#FFFFFF" stroke-width="0.8" stroke-opacity="1"></use></g></g><g><use xlink:href="#a2sCX5K2qy" opacity="1" fill="#FFFFFF" fill-opacity="1"></use><g><use xlink:href="#a2sCX5K2qy" opacity="1" fill-opacity="0" stroke="#FFFFFF" stroke-width="0.8" stroke-opacity="1"></use></g></g><g><use xlink:href="#k3Tm08wfBq" opacity="1" fill="#FFFFFF" fill-opacity="1"></use><g><use xlink:href="#k3Tm08wfBq" opacity="1" fill-opacity="0" stroke="#FFFFFF" stroke-width="0.8" stroke-opacity="1"></use></g></g><g><use xlink:href="#b2DFh6HdCy" opacity="1" fill="#FFFFFF" fill-opacity="1"></use><g><use xlink:href="#b2DFh6HdCy" opacity="1" fill-opacity="0" stroke="#FFFFFF" stroke-width="0.8" stroke-opacity="1"></use></g></g></g></g></svg>
